<?xml version="1.0" encoding="utf-8"?>
<!-- Svg Vector Icons : http://www.onlinewebfonts.com/icon -->
<!DOCTYPE svg PUBLIC "-//W3C//DTD SVG 1.1//EN" "http://www.w3.org/Graphics/SVG/1.1/DTD/svg11.dtd">
<svg version="1.1" xmlns="http://www.w3.org/2000/svg" xmlns:xlink="http://www.w3.org/1999/xlink" x="0px" y="0px" viewBox="0 0 1000 1000" enable-background="new 0 0 1000 1000" xml:space="preserve">
<metadata> Svg Vector Icons : http://www.onlinewebfonts.com/icon </metadata>
<g><path d="M990,143.7v712.5c0,73.8-59.8,133.7-133.7,133.7H734.8V571.2h116.7l15.8-145.3H734.8v-65.8c0-20.2,2.2-34.9,7.4-43.4c7.4-12.7,22.1-19.1,45.3-19.1h77.8V153.6H734.8c-26.3,0-51.5,3.2-81,14.9c-60,24.4-90.5,81.7-90.5,170.7V426h-84.2v145.3h84.2V990H143.7C69.9,989.9,10,930.1,10,856.2V143.7C10,69.9,69.8,10,143.7,10h712.7C930.1,10,990,69.8,990,143.7z"/></g>
</svg>