<?xml version="1.0" encoding="utf-8"?>
<!-- Svg Vector Icons : http://www.onlinewebfonts.com/icon -->
<!DOCTYPE svg PUBLIC "-//W3C//DTD SVG 1.1//EN" "http://www.w3.org/Graphics/SVG/1.1/DTD/svg11.dtd">
<svg version="1.1" xmlns="http://www.w3.org/2000/svg" xmlns:xlink="http://www.w3.org/1999/xlink" x="0px" y="0px" viewBox="0 0 1000 1000" enable-background="new 0 0 1000 1000" xml:space="preserve">
<metadata> Svg Vector Icons : http://www.onlinewebfonts.com/icon </metadata>
<g><path d="M894.7,10H105.3C52.9,10,10,52.9,10,105.3v789.4c0,52.4,42.9,95.3,95.3,95.3h789.4c52.4,0,95.3-42.9,95.3-95.3V105.3C990,52.9,947.1,10,894.7,10z M301.8,656.5c-87.9,0-159.1-71.2-159.1-159.1c0-87.9,71.2-159.1,159.1-159.1c87.9,0,159.1,71.2,159.1,159.1C460.9,585.3,389.6,656.5,301.8,656.5z M705.1,656.5c-87.9,0-159.1-71.2-159.1-159.1c0-87.9,71.2-159.1,159.1-159.1c87.9,0,159.1,71.2,159.1,159.1C864.2,585.3,793,656.5,705.1,656.5z"/></g>
</svg>