<?xml version="1.0" encoding="utf-8"?>
<!-- Svg Vector Icons : http://www.onlinewebfonts.com/icon -->
<!DOCTYPE svg PUBLIC "-//W3C//DTD SVG 1.1//EN" "http://www.w3.org/Graphics/SVG/1.1/DTD/svg11.dtd">
<svg version="1.1" xmlns="http://www.w3.org/2000/svg" xmlns:xlink="http://www.w3.org/1999/xlink" x="0px" y="0px" viewBox="0 0 1000 1000" enable-background="new 0 0 1000 1000" xml:space="preserve">
<metadata> Svg Vector Icons : http://www.onlinewebfonts.com/icon </metadata>
<g><path d="M826.6,317.5c-23.8,10.6-49.6,17.9-77.2,21.7c28.9-17,48.7-41.9,59.3-74.6c-27.7,16.2-56.2,27-85.5,32.5C697.3,269,664.8,255,625.7,255c-37,0-68.6,13.1-94.8,39.2c-26.2,26.2-39.2,57.7-39.2,94.8c0,12.3,1.1,22.5,3.2,30.6c-54.9-3-106.3-16.8-154.4-41.5c-48-24.7-88.9-57.6-122.5-98.9c-12.3,21.3-18.5,43.8-18.5,67.6c0,48.5,19.4,85.7,58.1,111.7c-20-0.4-41.3-6-63.8-16.6v1.3c0,31.9,10.6,60.3,31.9,85.2c21.3,24.9,47.4,40.3,78.5,46.3c-12.3,3.4-23.2,5.1-32.5,5.1c-5.5,0-13.8-0.8-24.9-2.5c8.9,26.8,24.8,48.9,47.5,66.3c22.7,17.4,48.6,26.4,77.5,26.8c-49.3,38.3-104.8,57.4-166.5,57.4c-11.1,0-21.7-0.6-31.9-1.9c63,40,131.4,60,205.4,60c47.6,0,92.3-7.6,134-22.7s77.4-35.3,107.2-60.6c29.8-25.3,55.4-54.4,76.9-87.4c21.5-33,37.4-67.4,47.8-103.4c10.4-35.9,15.6-71.8,15.6-107.5c0-7.6-0.2-13.4-0.6-17.2C786.4,368,808.7,344.8,826.6,317.5L826.6,317.5z M990,193.8v612.5c0,50.6-18,93.9-53.9,129.8C900.1,972,856.9,990,806.2,990H193.8c-50.6,0-93.9-18-129.8-53.9C28,900.1,10,856.9,10,806.2V193.8c0-50.6,18-93.9,53.9-129.8S143.1,10,193.8,10h612.5c50.6,0,93.9,18,129.8,53.9C972,99.9,990,143.1,990,193.8L990,193.8z"/></g>
</svg>